<svg id="Dragon" xmlns="http://www.w3.org/2000/svg" viewBox="0 0 1310.61 1653.06"><defs><style>.cls-1{fill:#89c540;}.cls-2{fill:#ec2127;}.cls-3{fill:#f15b26;}.cls-4{fill:#f79420;}.cls-5{fill:#b51518;}.cls-6{fill:#ab2025;}.cls-7{fill:#a31e22;}.cls-8{fill:#5e0000;}.cls-9{fill:#8ac640;}.cls-10{fill:#841315;}</style></defs><title>Dragon Animal Mascot Logo</title><path class="cls-1" d="M1306.18,1241.48a238.12,238.12,0,0,1,48.08,69.08c84.41,182.14-82.53,269.63-82.53,269.63,71.28-219.63-146.31-257.13-146.31-257.13-3.76,64.28,22.51,123.21,22.51,123.21C928.46,1407,821.54,1258.78,821.54,1258.78c-20.64,44.64,26.26,107.14,26.26,107.14-116.51-31.9-187.58-92.64-230.9-153.54,33.59,55.68,87.46,120.55,173.51,179.23,109.25,74.5,247.36,114.51,190.57,211.79-45.76,78.39-408.92,126.79-628.39-194.63,0,0,110.68,400,630.27,400C1478.81,1808.75,1521.87,1441.09,1306.18,1241.48Z" transform="translate(-345 -155.69)"/><path class="cls-2" d="M983.72,1019s-29,109.19,53.53,202.27c0,0-208.21-44.64-238.22-235.71,0,0-67.53,112.5-39.39,196.42,0,0-106.92-144.63-31.89-330.34,0,0-101.29,7.14-163.19,94.64,0,0-13.13-191.06,166.94-314.27,0,0-88.16-48.22-159.44-44.65,0,0,165.57-182.86,416.88-109.87,4.85-39.6-12.45-90.85-12.45-90.85l125.06,69.05C1112.8,506.89,1087.79,564,1087.79,564c37.08-50.13,41.93-112.84,32.07-173.95-62.08-99.86-191-165.65-382.23-154.62,0,0,50,44,65,74.41,0,0-307.64,68.45-457.66,332.86,0,0,95.92,1.25,172.53,21.3,0,0-183.72,210.83-35.53,500.11,0,0,26.27-100,67.54-130.35,0,0,11.26,253.56,298.26,332.13,0,0-46.9-62.5-26.26-107.14,0,0,106.92,148.2,326.39,187.49,0,0-26.27-58.93-22.51-123.21,0,0,217.59,37.5,146.31,257.13,0,0,166.94-87.49,82.53-269.63S1057.78,1197.37,983.72,1019Z" transform="translate(-345 -155.69)"/><path class="cls-3" d="M1306.18,1241.48a238.12,238.12,0,0,1,48.08,69.08c84.41,182.14-82.53,269.63-82.53,269.63,71.28-219.63-146.31-257.13-146.31-257.13-3.76,64.28,22.51,123.21,22.51,123.21C928.46,1407,821.54,1258.78,821.54,1258.78c-20.64,44.64,26.26,107.14,26.26,107.14-116.51-31.9-187.58-92.64-230.9-153.54A536.58,536.58,0,0,0,684,1300.92c.08.08,93.68,91.71,251.18,141.69,0,0-30-47.62-30-64.28,0,0,37.52,61.9,130.06,102.38s85,121.43,45,142.86c0,0,122.56-31,132.56-152.39,0,0,50,231-190.09,266.67,0,0,335,28.25,406.37-250.16C1424.73,1400.31,1381.05,1310.77,1306.18,1241.48Z" transform="translate(-345 -155.69)"/><path class="cls-4" d="M1428.72,1481.32c.11,1.63.22,3.26.31,4.88C1428.94,1484.58,1428.83,1483,1428.72,1481.32Z" transform="translate(-345 -155.69)"/><path class="cls-4" d="M1427.8,1470.91c0-.14,0-.28,0-.42h0C1427.76,1470.64,1427.79,1470.77,1427.8,1470.91Z" transform="translate(-345 -155.69)"/><path class="cls-4" d="M1428,1473c.19,1.84.36,3.67.51,5.51C1428.36,1476.69,1428.19,1474.86,1428,1473Z" transform="translate(-345 -155.69)"/><path class="cls-4" d="M673.85,1289.7h0l.16.18Z" transform="translate(-345 -155.69)"/><path class="cls-4" d="M680.84,1297.44l-1.54-1.67Z" transform="translate(-345 -155.69)"/><path class="cls-4" d="M1429.11,1487.76c-71.4,278.34-406.35,250.09-406.35,250.09,240.11-35.71,190.09-266.67,190.09-266.67-10,121.43-132.56,152.39-132.56,152.39,40-21.43,47.52-102.39-45-142.86s-130.06-102.38-130.06-102.38c0,16.66,30,64.28,30,64.28-153.73-48.78-246.57-137.23-251-141.51,28.38,30.44,63.28,61.24,106.19,90.51,109.25,74.5,247.36,114.51,190.57,211.79a58.62,58.62,0,0,1-12.09,14.18s73.88-27.35,73.88-89.25c0,0,47.52,119.05-162.57,157.14,0,0,100,35.72,180.08,7.15,0,0-95,73.8-425.2-7.15,0,0,208.17,117.71,478,113.63C1342,1762.6,1436.13,1628,1429.11,1487.76Z" transform="translate(-345 -155.69)"/><path class="cls-5" d="M983.72,1019s-29,109.19,53.53,202.27c0,0-208.21-44.64-238.22-235.71,0,0-67.53,112.5-39.39,196.42,0,0-106.92-144.63-31.89-330.34,0,0-101.29,7.14-163.19,94.64,0,0-13.13-191.06,166.94-314.27,0,0-88.16-48.22-159.44-44.65,0,0,165.57-182.86,416.88-109.87,4.85-39.6-12.45-90.85-12.45-90.85l125.06,69.05C1112.8,506.89,1087.79,564,1087.79,564c26.3-35.56,36.37-77.44,36.5-120.59-27.86-28-95.48-82.94-229.09-127,0,0,40,47.62,40,76.19,0,0-225.1-52.38-487.73,216.67,0,0,93.83.93,167.58,28.57,0,0-145.06,192.86-57.52,359.53,0,0,60-57.14,97.54-73.81,0,0-30,233.34,132.56,321.43,0,0-4.27-81.22,17.51-128.57,0,0,75,142.86,315.15,147.62C1120.31,1264,983.6,1124.6,983.72,1019Z" transform="translate(-345 -155.69)"/><path class="cls-2" d="M1593,1033.08l56.59-86.21a36,36,0,0,0,.3-39.28c-8.43-13.26-18.48-31.61-22.19-48.6-9-41.11-29.7-46.15-72.22-60.43S1439.21,720,1439.21,720s-21.26-84.53-60-122.62c0,0-32.85-53.18-38-104.63-9.38-92.86,19.29-156.09,19.29-156.09s-72.53,38.09-77.54,88.09-6.25,103.58-6.25,103.58-36.27-34.53-86.29-167.86S1131.56,211.65,1024,155.69c0,0,173.83,259.53,63.78,408.34,0,0,25-57.14,13.76-108.33L976.49,386.65s33.77,100-6.25,128.57S779.5,558.91,779.5,558.91s92.43,68.89,92.43,132-60.52,136.23-60.52,136.23,88.8,4.76,138.82,46.43S1014,990.23,1014,990.23s52-70.86,127.07-92.29c0,0,16.23,85.85,140,143,50.55,23.33,140.68,66.07,126.4,162.39l123-77.38s-50,13.1-72.53-13.09-28.77-47.62-86.3-72.62S1260.47,982,1247.34,919.5c-16.25-77.36,5.53-105.47,5.53-105.47s41.5,45.46,81.29,69.05c46.06,27.32,78.35,37.75,136.4,47.14C1526.92,939.33,1571.85,958.79,1593,1033.08Z" transform="translate(-345 -155.69)"/><path class="cls-6" d="M1402.18,914.81h0c-22.76-7.37-43.43-17.14-68-31.73-39.79-23.59-81.29-69-81.29-69s-21.78,28.1-5.53,105.46c13.13,62.5,66.81,95.73,124.33,120.73s63.78,46.43,86.3,72.62,72.53,13.09,72.53,13.09C1384.1,1052,1402.18,914.81,1402.18,914.81Z" transform="translate(-345 -155.69)"/><path class="cls-7" d="M1595.53,889s-33.68-9.41-61.19-21.32S1566.14,793.57,1595.53,889Z" transform="translate(-345 -155.69)"/><path class="cls-8" d="M1595.53,889s-4.79-34.9-17.3-46.81-61.47-7.27-35.21,13C1570.53,867.1,1574.27,856.89,1595.53,889Z" transform="translate(-345 -155.69)"/><path class="cls-5" d="M1331.75,655.23c-19.92-23.61-99.41-64.28-99.41-64.28s-34.88,104.63,58.14,139.28c86.29,32.14,108.8,33.92,221.35,103.56C1511.83,833.79,1364.08,693.55,1331.75,655.23Z" transform="translate(-345 -155.69)"/><path class="cls-8" d="M1350.48,732.31s-24.49-16.93-26.12-47.2S1265.48,622,1241,615.84c0,0,5.25,49.09,23.18,73.56C1289.22,723.54,1350.48,732.31,1350.48,732.31Z" transform="translate(-345 -155.69)"/><path class="cls-5" d="M1132.81,661.65l60,47.62s-60-109.52-45-147.62,45-54.76,45-54.76-39.92-90.22-56.17-174.86C1113.78,212.76,1024,155.7,1024,155.7S1197.84,415.22,1087.79,564c0,0,25-57.14,13.76-108.33l-63.78-6c45,142.86-127.56,159.53-127.56,159.53,82.54,69.05-5,192.86-5,192.86,115-4.76,130.06,111.91,130.06,111.91,52.52-33.34,105.81-16.1,105.81-16.1C1104.32,769.94,1132.81,661.65,1132.81,661.65Z" transform="translate(-345 -155.69)"/><path class="cls-5" d="M1356.52,653.4c1.81,5.45,3.37,9,3.37,9Q1358.33,657.9,1356.52,653.4Z" transform="translate(-345 -155.69)"/><path class="cls-5" d="M1282.88,424.75c-5,50-6.25,103.57-6.25,103.57s55.24,63.45,79.89,125.08c-4.4-13.28-10.24-38,1.49-51.74,0,0-52.52-62.5-52.52-108.92s-2.69-108.61,54.93-156.09C1360.42,336.65,1287.89,374.75,1282.88,424.75Z" transform="translate(-345 -155.69)"/><path class="cls-9" d="M1268.51,654s44.48,16,45.4,51c0,0-11.12-1.4-30-17.85C1275,679.28,1268.51,654,1268.51,654Z" transform="translate(-345 -155.69)"/><path class="cls-8" d="M1445.46,1071.18c-34.65-43-46.8-45.13-81.82-74.89s-26.49-111.43-29.48-113.21c-39.79-23.59-81.29-69-81.29-69s-21.78,28.1-5.53,105.46c13.13,62.5,66.81,95.73,124.33,120.73s63.78,46.43,86.3,72.62C1457.86,1099.53,1459.24,1091,1445.46,1071.18Z" transform="translate(-345 -155.69)"/><path class="cls-3" d="M1649.62,946.88a36,36,0,0,0,.3-39.29c-3.69-5.8-7.69-12.57-11.33-19.78h0s-9.21,56.69-29.85,88.83c0,0,14.7-49.66-69.71-67.51,0,0,25.32,15.14,25.32,33,0,0-43.68-17.86-144.43-42.26-98-23.73-178.21-116.07-178.21-116.07s11.16,30.25,57.36,74a281.88,281.88,0,0,0,35.09,25.31c46.06,27.32,78.35,37.75,136.4,47.14,56.36,9.11,101.29,28.57,122.47,102.86Z" transform="translate(-345 -155.69)"/><path class="cls-5" d="M1260.47,996.29c-119.57-77.53-77.83-202-77.83-202-23.45,36.78-36.48,67.41-41.87,103.7l.31-.09s16.23,85.85,140,143c50.55,23.33,140.68,66.07,126.4,162.39C1474.31,1108.78,1370.56,1067.67,1260.47,996.29Z" transform="translate(-345 -155.69)"/><polygon class="cls-10" points="1083.19 895.31 1083.19 895.31 1083.19 895.3 1083.19 895.31"/><path class="cls-10" d="M1324.54,877l-2.53-1.71Z" transform="translate(-345 -155.69)"/><path class="cls-10" d="M1330.81,881l-1.6-1Z" transform="translate(-345 -155.69)"/><path class="cls-10" d="M1327.58,879l-2.12-1.39Z" transform="translate(-345 -155.69)"/><path class="cls-10" d="M1363.64,996.29c20.84,17.71,33.58,25.63,47.79,38.2-44.28-52.42-43.37-133.22-43.37-133.22-10.83-5.11-21.9-11.07-33.9-18.19C1337.15,884.86,1328.63,966.52,1363.64,996.29Z" transform="translate(-345 -155.69)"/><path class="cls-3" d="M970.24,515.22c-40,28.57-190.74,43.69-190.74,43.69s92.43,68.89,92.43,132-60.52,136.23-60.52,136.23,88.8,4.76,138.82,46.43S1014,990.23,1014,990.23s51.89-70.67,126.76-92.2c0,0-91.09,14.93-110.5,47,0,0-60-142.86-172.58-128.57,0,0,122.55-154.77-2.51-223.82,0,0,272.63-38.09,121.31-206C976.49,386.65,1010.26,486.65,970.24,515.22Z" transform="translate(-345 -155.69)"/></svg>